<?xml version="1.0" encoding="utf-8"?>
<svg version="1.1" xmlns:xlink="http://www.w3.org/1999/xlink" width="14px" height="15px" xmlns="http://www.w3.org/2000/svg">
  <g transform="matrix(1 0 0 1 -174 -332 )">
    <path d="M 0 10.6473214285714  C 0 9.11272321428571  0.669703872437358 7.8125  2.00911161731207 6.74665178571429  C 1.9665907365224 6.640625  1.94533029612756 6.49553571428571  1.94533029612756 6.31138392857143  C 1.94533029612756 6.19977678571428  1.97456340167046 6.06305803571428  2.03302961275626 5.90122767857143  C 2.09149582384207 5.73939732142857  2.15527714502658 5.61383928571428  2.22437357630979 5.52455357142857  C 2.21905846621109 5.40178571428571  2.23899012908125 5.25390625  2.28416856492027 5.08091517857143  C 2.3293470007593 4.90792410714286  2.38914198936978 4.78794642857143  2.46355353075171 4.72098214285714  C 2.46355353075171 3.9453125  2.70937737281701 3.14034598214286  3.20102505694761 2.30608258928571  C 3.69267274107821 1.47181919642857  4.27069096431283 0.887276785714285  4.93507972665148 0.552455357142856  C 5.67388003037206 0.184151785714285  6.53492786636295 0  7.51822323462415 0  C 8.22513287775247 0  8.93204252088079 0.153459821428573  9.63895216400911 0.460379464285715  C 9.89939255884586 0.577566964285715  10.1385725132878 0.711495535714285  10.3564920273349 0.862165178571429  C 10.5744115413819 1.01283482142857  10.7630979498861 1.16908482142857  10.9225512528474 1.33091517857143  C 11.0820045558087 1.49274553571428  11.2281700835232 1.68247767857143  11.3610478359909 1.90011160714286  C 11.4939255884586 2.11774553571429  11.6055429005315 2.32421875  11.6958997722096 2.51953125  C 11.7862566438876 2.71484375  11.8726271829916 2.95061383928571  11.9550113895216 3.22684151785714  C 12.0373955960516 3.50306919642857  12.1051632498102 3.75279017857143  12.1583143507973 3.97600446428571  C 12.2114654517844 4.19921875  12.2699316628702 4.47265625  12.3337129840547 4.79631696428571  L 12.3416856492027 4.83816964285714  C 12.6340167046317 5.30133928571428  12.7801822323462 5.71986607142857  12.7801822323462 6.09375  C 12.7801822323462 6.171875  12.756264236902 6.28348214285714  12.7084282460137 6.42857142857143  C 12.6605922551253 6.57366071428571  12.6366742596811 6.6796875  12.6366742596811 6.74665178571429  C 12.6366742596811 6.75223214285714  12.6406605922551 6.76199776785714  12.6486332574032 6.77594866071429  C 12.6566059225513 6.78989955357143  12.665907365224 6.80385044642857  12.6765375854214 6.81780133928571  C 12.6871678056188 6.83175223214286  12.6924829157175 6.84151785714286  12.6924829157175 6.84709821428571  C 13.1017463933181 7.48325892857143  13.4219817767654 8.08175223214286  13.6531890660592 8.642578125  C 13.8843963553531 9.20340401785714  14 9.78515625  14 10.3878348214286  C 14 10.6277901785714  13.9481776765376 10.9068080357143  13.8445330296128 11.2248883928571  C 13.7408883826879 11.54296875  13.5933940774487 11.7020089285714  13.4020501138952 11.7020089285714  C 13.3542141230068 11.7020089285714  13.3023917995444 11.6810825892857  13.246583143508 11.6392299107143  C 13.1907744874715 11.5973772321429  13.1402809415338 11.5485491071429  13.0951025056948 11.4927455357143  C 13.0499240698557 11.4369419642857  12.999430523918 11.3643973214286  12.9436218678815 11.2751116071429  C 12.8878132118451 11.1858258928571  12.8452923310554 11.1118861607143  12.8160592255125 11.0532924107143  C 12.7868261199696 10.9946986607143  12.7509491268033 10.9221540178571  12.7084282460137 10.8356584821429  C 12.665907365224 10.7491629464286  12.6419893697798 10.7003348214286  12.6366742596811 10.6891741071429  C 12.6313591495824 10.68359375  12.6233864844343 10.6808035714286  12.6127562642369 10.6808035714286  L 12.5728929384966 10.7142857142857  C 12.2593014426727 11.5736607142857  11.9085041761579 12.1958705357143  11.5205011389522 12.5809151785714  C 11.6268033409263 12.6925223214286  11.7902429764617 12.7999441964286  12.0108200455581 12.9031808035714  C 12.2313971146545 13.0064174107143  12.41476841306 13.1222098214286  12.5609339407745 13.2505580357143  C 12.707099468489 13.37890625  12.8014426727411 13.5602678571429  12.8439635535308 13.7946428571429  C 12.8333333333333 13.8169642857143  12.8227031131359 13.8616071428571  12.8120728929385 13.9285714285714  C 12.8014426727411 13.9955357142857  12.7828397873956 14.0457589285714  12.756264236902 14.0792410714286  C 12.4160971905847 14.6205357142857  11.6135155656796 14.8911830357143  10.3485193621868 14.8911830357143  C 10.0668185269552 14.8911830357143  9.77315869400152 14.8660714285714  9.46753986332574 14.8158482142857  C 9.16192103264996 14.765625  8.90148063781321 14.7098214285714  8.68621867881549 14.6484375  C 8.47095671981777 14.5870535714286  8.19324221716021 14.5033482142857  7.85307517084282 14.3973214285714  C 7.77334851936219 14.3694196428571  7.71222475322703 14.3498883928571  7.66970387243736 14.3387276785714  C 7.59529233105543 14.31640625  7.47304479878512 14.3038504464286  7.30296127562642 14.3010602678571  C 7.13287775246773 14.2982700892857  7.02657555049355 14.2940848214286  6.98405466970387 14.2885044642857  C 6.7661351556568 14.5396205357143  6.42729688686409 14.7209821428571  5.96753986332574 14.8325892857143  C 5.5077828397874 14.9441964285714  5.05998481397115 15  4.62414578587699 15  C 4.43811693242217 15  4.2547456340167 14.9958147321429  4.07403189066059 14.9874441964286  C 3.89331814730448 14.9790736607143  3.6461655277145 14.9539620535714  3.33257403189066 14.912109375  C 3.01898253606682 14.8702566964286  2.750569476082 14.8130580357143  2.52733485193622 14.7405133928571  C 2.30410022779043 14.66796875  2.10611237661352 14.5563616071429  1.93337129840547 14.4056919642857  C 1.76063022019742 14.2550223214286  1.67425968109339 14.0764508928571  1.67425968109339 13.8699776785714  C 1.67425968109339 13.6467633928571  1.70083523158694 13.4807477678571  1.75398633257403 13.3719308035714  C 1.80713743356112 13.2631138392857  1.91609719058466 13.1277901785714  2.08086560364465 12.9659598214286  C 2.13933181473045 12.9547991071429  2.24696279422931 12.9185267857143  2.40375854214123 12.8571428571429  C 2.56055429005315 12.7957589285714  2.6921032649962 12.7622767857143  2.79840546697039 12.7566964285714  C 2.81966590736522 12.7566964285714  2.85687167805619 12.7511160714286  2.91002277904328 12.7399553571429  C 2.9206529992407 12.7287946428571  2.92596810933941 12.7176339285714  2.92596810933941 12.7064732142857  L 2.91002277904328 12.6813616071429  C 2.65489749430524 12.6199776785714  2.36788154897494 12.3256138392857  2.04897494305239 11.7982700892857  C 1.73006833712984 11.2709263392857  1.53606681852696 10.8342633928571  1.46697038724374 10.48828125  L 1.42710706150342 10.4631696428571  C 1.40584662110858 10.4631696428571  1.37395596051633 10.5189732142857  1.33143507972665 10.6305803571429  C 1.23576309794989 10.859375  1.09092634776006 11.0672433035714  0.896924829157175 11.2541852678571  C 0.70292331055429 11.4411272321429  0.496962794229309 11.5457589285714  0.279043280182232 11.5680803571429  L 0.271070615034169 11.5680803571429  C 0.249810174639332 11.5680803571429  0.233864844343204 11.5555245535714  0.223234624145786 11.5304129464286  C 0.212604403948368 11.5053013392857  0.199316628701595 11.4899553571429  0.183371298405467 11.484375  C 0.0611237661351557 11.1830357142857  0 10.9040178571429  0 10.6473214285714  Z " fill-rule="nonzero" fill="#ffffff" stroke="none" fill-opacity="0.996078431372549" transform="matrix(1 0 0 1 174 332 )" />
  </g>
</svg>