<?xml version="1.0" encoding="utf-8"?>
<svg version="1.1" xmlns:xlink="http://www.w3.org/1999/xlink" width="17px" height="17px" xmlns="http://www.w3.org/2000/svg">
  <g transform="matrix(1 0 0 1 -52 -175 )">
    <path d="M 12.7512929802724 7.08236367977469  L 4.25129298027244 7.08236367977469  L 4.25129298027244 4.96657540437489  C 4.25905081136504 4.37508555543732  4.50988744268591 1.41763632970122  8.50258596054489 1.41763632970122  C 12.4952844784039 1.41763632970122  12.7435351491799 4.37508555543732  12.7538789408173 4.95687886562994  L 12.7512929802724 7.08236367977469  Z M 10.198965615782 11.3313940041056  C 10.2015515763269 11.8530686641589  9.85762092135291 12.304928116376  9.35077578816347 12.5512206098575  L 9.35077578816347 14.872575843993  L 7.65181017238142 14.872575843993  L 7.65181017238142 12.5512206098575  C 7.14496501392094 12.304928116376  6.80103438421795 11.8530686641589  6.80103438421795 11.3313940041056  C 6.80103438421795 10.5479123620464  7.56130210927316 9.91375767440436  8.5 9.91375767440436  C 9.43869789072684 9.91375767440436  10.198965615782 10.5479123620464  10.198965615782 11.3313940041056  Z M 17 7.08236367977469  L 14.4502585960545 7.08236367977469  L 14.4502585960545 4.95687884667809  C 14.4502585960545 4.95687884667809  14.4502585960545 0  8.5 0  C 2.54974140394551 0  2.54974140394551 4.95687884667809  2.54974140394551 4.95687884667809  L 2.54974140394551 7.08236367977469  L 0 7.08236367977469  L 0 17  L 17 17  L 17 7.08236367977469  Z " fill-rule="nonzero" fill="#aaaaaa" stroke="none" transform="matrix(1 0 0 1 52 175 )" />
  </g>
</svg>