<?xml version="1.0" encoding="utf-8"?>
<svg version="1.1" xmlns:xlink="http://www.w3.org/1999/xlink" width="300px" height="50px" xmlns="http://www.w3.org/2000/svg">
  <g transform="matrix(1 0 0 1 -35 -158 )">
    <path d="M 36.5 161  A 1.5 1.5 0 0 1 38 159.5 L 332 159.5  A 1.5 1.5 0 0 1 333.5 161 L 333.5 205  A 1.5 1.5 0 0 1 332 206.5 L 38 206.5  A 1.5 1.5 0 0 1 36.5 205 L 36.5 161  Z " fill-rule="nonzero" fill="#ffffff" stroke="none" fill-opacity="0" />
    <path d="M 36 161  A 2 2 0 0 1 38 159 L 332 159  A 2 2 0 0 1 334 161 L 334 205  A 2 2 0 0 1 332 207 L 38 207  A 2 2 0 0 1 36 205 L 36 161  Z " stroke-width="2" stroke="#1abc9c" fill="none" />
  </g>
</svg>