<?xml version="1.0" encoding="utf-8"?>
<svg version="1.1" xmlns:xlink="http://www.w3.org/1999/xlink" width="300px" height="50px" xmlns="http://www.w3.org/2000/svg">
  <g transform="matrix(1 0 0 1 -35 -158 )">
    <path d="M 36 161  A 2 2 0 0 1 38 159 L 332 159  A 2 2 0 0 1 334 161 L 334 205  A 2 2 0 0 1 332 207 L 38 207  A 2 2 0 0 1 36 205 L 36 161  Z " fill-rule="nonzero" fill="#ffffff" stroke="none" fill-opacity="0.498039215686275" />
    <path d="M 35.5 161  A 2.5 2.5 0 0 1 38 158.5 L 332 158.5  A 2.5 2.5 0 0 1 334.5 161 L 334.5 205  A 2.5 2.5 0 0 1 332 207.5 L 38 207.5  A 2.5 2.5 0 0 1 35.5 205 L 35.5 161  Z " stroke-width="1" stroke="#cccccc" fill="none" stroke-opacity="0.698039215686274" />
  </g>
</svg>