<?xml version="1.0" encoding="utf-8"?>
<svg version="1.1" xmlns:xlink="http://www.w3.org/1999/xlink" width="300px" height="50px" xmlns="http://www.w3.org/2000/svg">
  <g transform="matrix(1 0 0 1 -35 -88 )">
    <path d="M 37 91  A 1 1 0 0 1 38 90 L 332 90  A 1 1 0 0 1 333 91 L 333 135  A 1 1 0 0 1 332 136 L 38 136  A 1 1 0 0 1 37 135 L 37 91  Z " fill-rule="nonzero" fill="#ffffff" stroke="none" fill-opacity="0.498039215686275" />
    <path d="M 36 91  A 2 2 0 0 1 38 89 L 332 89  A 2 2 0 0 1 334 91 L 334 135  A 2 2 0 0 1 332 137 L 38 137  A 2 2 0 0 1 36 135 L 36 91  Z " stroke-width="2" stroke="#d9001b" fill="none" stroke-opacity="0.996078431372549" />
  </g>
</svg>