<?xml version="1.0" encoding="utf-8"?>
<svg version="1.1" xmlns:xlink="http://www.w3.org/1999/xlink" width="18px" height="18px" xmlns="http://www.w3.org/2000/svg">
  <g transform="matrix(1 0 0 1 -222 -16 )">
    <path d="M 17.8091517857143 14.9701704545455  C 17.9363839285714 15.1321022727273  18 15.3238636363636  18 15.5454545454545  L 18 17.1818181818182  C 18 17.4034090909091  17.9363839285714 17.5951704545455  17.8091517857143 17.7571022727273  C 17.6819196428571 17.9190340909091  17.53125 18  17.3571428571429 18  L 0.642857142857143 18  C 0.46875 18  0.318080357142857 17.9190340909091  0.190848214285714 17.7571022727273  C 0.0636160714285714 17.5951704545455  0 17.4034090909091  0 17.1818181818182  L 0 15.5454545454545  C 0 15.3238636363636  0.0636160714285714 15.1321022727273  0.190848214285714 14.9701704545455  C 0.318080357142857 14.8082386363636  0.46875 14.7272727272727  0.642857142857143 14.7272727272727  L 17.3571428571429 14.7272727272727  C 17.53125 14.7272727272727  17.6819196428571 14.8082386363636  17.8091517857143 14.9701704545455  Z M 13.9520089285714 10.0610795454545  C 14.0792410714286 10.2230113636364  14.1428571428571 10.4147727272727  14.1428571428571 10.6363636363636  L 14.1428571428571 12.2727272727273  C 14.1428571428571 12.4943181818182  14.0792410714286 12.6860795454545  13.9520089285714 12.8480113636364  C 13.8247767857143 13.0099431818182  13.6741071428571 13.0909090909091  13.5 13  L 0.642857142857143 13  C 0.46875 13.0909090909091  0.318080357142857 13.0099431818182  0.190848214285714 12.8480113636364  C 0.0636160714285714 12.6860795454545  0 12.4943181818182  0 12.2727272727273  L 0 10.6363636363636  C 0 10.4147727272727  0.0636160714285714 10.2230113636364  0.190848214285714 10.0610795454545  C 0.318080357142857 9.89914772727272  0.46875 9.81818181818182  0.642857142857143 9.81818181818182  L 13.5 9.81818181818182  C 13.6741071428571 9.81818181818182  13.8247767857143 9.89914772727272  13.9520089285714 10.0610795454545  Z M 16.5234375 5.15198863636364  C 16.6506696428571 5.31392045454545  16.7142857142857 5.50568181818182  16.7142857142857 5.72727272727273  L 16.7142857142857 7.36363636363636  C 16.7142857142857 7.58522727272727  16.6506696428571 7.77698863636364  16.5234375 7.93892045454545  C 16.3962053571429 8.10085227272727  16.2455357142857 8.18181818181818  16.0714285714286 8.18181818181818  L 0.642857142857143 8.18181818181818  C 0.46875 8.18181818181818  0.318080357142857 8.10085227272727  0.190848214285714 7.93892045454545  C 0.0636160714285714 7.77698863636364  0 7.58522727272727  0 7.36363636363636  L 0 5.72727272727273  C 0 5.50568181818182  0.0636160714285714 5.31392045454545  0.190848214285714 5.15198863636364  C 0.318080357142857 4.99005681818182  0.46875 4.90909090909091  0.642857142857143 5  L 16.0714285714286 5  C 16.2455357142857 4.90909090909091  16.3962053571429 4.99005681818182  16.5234375 5.15198863636364  Z M 12.6662946428571 0.242897727272728  C 12.7935267857143 0.404829545454543  12.8571428571429 0.596590909090908  12.8571428571429 0.818181818181817  L 12.8571428571429 2.45454545454545  C 12.8571428571429 2.67613636363636  12.7935267857143 2.86789772727273  12.6662946428571 3.02982954545455  C 12.5390625 3.19176136363636  12.3883928571429 3.27272727272727  12.2142857142857 3.27272727272727  L 0.642857142857143 3.27272727272727  C 0.46875 3.27272727272727  0.318080357142857 3.19176136363636  0.190848214285714 3.02982954545455  C 0.0636160714285714 2.86789772727273  0 2.67613636363636  0 2.45454545454545  L 0 0.818181818181817  C 0 0.596590909090908  0.0636160714285714 0.404829545454543  0.190848214285714 0.242897727272728  C 0.318080357142857 0.0809659090909074  0.46875 0  0.642857142857143 0  L 12.2142857142857 0  C 12.3883928571429 0  12.5390625 0.0809659090909074  12.6662946428571 0.242897727272728  Z " fill-rule="nonzero" fill="#7f7f7f" stroke="none" transform="matrix(1 0 0 1 222 16 )" />
  </g>
</svg>