<?xml version="1.0" encoding="utf-8"?>
<svg version="1.1" xmlns:xlink="http://www.w3.org/1999/xlink" width="258px" height="29px" xmlns="http://www.w3.org/2000/svg">
  <g transform="matrix(1 0 0 1 -96 -129 )">
    <path d="M 97 132  A 2 2 0 0 1 99 130 L 351 130  A 2 2 0 0 1 353 132 L 353 155  A 2 2 0 0 1 351 157 L 99 157  A 2 2 0 0 1 97 155 L 97 132  Z " fill-rule="nonzero" fill="#ffffff" stroke="none" fill-opacity="0.498039215686275" />
    <path d="M 96.5 132  A 2.5 2.5 0 0 1 99 129.5 L 351 129.5  A 2.5 2.5 0 0 1 353.5 132 L 353.5 155  A 2.5 2.5 0 0 1 351 157.5 L 99 157.5  A 2.5 2.5 0 0 1 96.5 155 L 96.5 132  Z " stroke-width="1" stroke="#cccccc" fill="none" stroke-opacity="0.698039215686274" />
  </g>
</svg>