<?xml version="1.0" encoding="utf-8"?>
<svg version="1.1" xmlns:xlink="http://www.w3.org/1999/xlink" width="12px" height="12px" viewBox="132 108  12 12" xmlns="http://www.w3.org/2000/svg">
  <path d="M 138 108  C 141.36 108  144 110.64  144 114  C 144 117.36  141.36 120  138 120  C 134.64 120  132 117.36  132 114  C 132 110.64  134.64 108  138 108  Z " fill-rule="nonzero" fill="#f0f0f0" stroke="none" />
  <path d="M 138 108.5  C 141.08 108.5  143.5 110.92  143.5 114  C 143.5 117.08  141.08 119.5  138 119.5  C 134.92 119.5  132.5 117.08  132.5 114  C 132.5 110.92  134.92 108.5  138 108.5  Z " stroke-width="1" stroke="#797979" fill="none" />
  <path d="M 138 117  C 136.32 117  135 115.68  135 114  C 135 112.32  136.32 111  138 111  C 139.68 111  141 112.32  141 114  C 141 115.68  139.68 117  138 117  " fill-rule="nonzero" fill="#797979" stroke="none" />
</svg>