<?xml version="1.0" encoding="utf-8"?>
<svg version="1.1" xmlns:xlink="http://www.w3.org/1999/xlink" width="27px" height="20px" xmlns="http://www.w3.org/2000/svg">
  <g transform="matrix(1 0 0 1 -166 -408 )">
    <path d="M 167 412  A 3 3 0 0 1 170 409 L 189 409  A 3 3 0 0 1 192 412 L 192 424  A 3 3 0 0 1 189 427 L 170 427  A 3 3 0 0 1 167 424 L 167 412  Z " fill-rule="nonzero" fill="#f5f5f5" stroke="none" fill-opacity="0" />
    <path d="M 166.5 412  A 3.5 3.5 0 0 1 170 408.5 L 189 408.5  A 3.5 3.5 0 0 1 192.5 412 L 192.5 424  A 3.5 3.5 0 0 1 189 427.5 L 170 427.5  A 3.5 3.5 0 0 1 166.5 424 L 166.5 412  Z " stroke-width="1" stroke-dasharray="3,1" stroke="#d9d9d9" fill="none" stroke-dashoffset="0.5" />
  </g>
</svg>