<?xml version="1.0" encoding="utf-8"?>
<svg version="1.1" xmlns:xlink="http://www.w3.org/1999/xlink" width="14px" height="18px" xmlns="http://www.w3.org/2000/svg">
  <g transform="matrix(1 0 0 1 -27 -266 )">
    <path d="M 8.02994791666667 16.99453125  C 8.31553819444444 16.77421875  8.45833333333333 16.509375  8.45833333333333 16.2  C 8.45833333333333 15.890625  8.31553819444444 15.62578125  8.02994791666667 15.40546875  C 7.74435763888889 15.18515625  7.40104166666667 15.075  7 15.075  C 6.59895833333333 15.075  6.25564236111111 15.18515625  5.97005208333333 15.40546875  C 5.68446180555556 15.62578125  5.54166666666667 15.890625  5.54166666666667 16.2  C 5.54166666666667 16.509375  5.68446180555556 16.77421875  5.97005208333333 16.99453125  C 6.25564236111111 17.21484375  6.59895833333333 17.325  7 17.325  C 7.40104166666667 17.325  7.74435763888889 17.21484375  8.02994791666667 16.99453125  Z M 12.0768229166667 14.26640625  C 12.1922743055556 14.17734375  12.25 14.071875  12.25 13.95  L 12.25 4.05  C 12.25 3.928125  12.1922743055556 3.82265625  12.0768229166667 3.73359375  C 11.9613715277778 3.64453125  11.8246527777778 3.6  11.6666666666667 3.6  L 2.33333333333333 3.6  C 2.17534722222222 3.6  2.03862847222222 3.64453125  1.92317708333333 3.73359375  C 1.80772569444444 3.82265625  1.75 3.928125  1.75 4.05  L 1.75 13.95  C 1.75 14.071875  1.80772569444444 14.17734375  1.92317708333333 14.26640625  C 2.03862847222222 14.35546875  2.17534722222222 14.4  2.33333333333333 14.4  L 11.6666666666667 14.4  C 11.8246527777778 14.4  11.9613715277778 14.35546875  12.0768229166667 14.26640625  Z M 8.45833333333333 2.25  C 8.65277777777778 2.25  8.75 2.175  8.75 2.025  C 8.75 1.875  8.65277777777778 1.8  8.45833333333333 1.8  L 5.54166666666667 1.8  C 5.34722222222222 1.8  5.25 1.875  5.25 2.025  C 5.25 2.175  5.34722222222222 2.25  5.54166666666667 2.25  L 8.45833333333333 2.25  Z M 13.3072916666667 0.534375  C 13.7690972222222 0.890624999999999  14 1.3125  14 1.8  L 14 16.2  C 14 16.6875  13.7690972222222 17.109375  13.3072916666667 17.465625  C 12.8454861111111 17.821875  12.2986111111111 18  11.6666666666667 18  L 2.33333333333333 18  C 1.70138888888889 18  1.15451388888889 17.821875  0.692708333333333 17.465625  C 0.230902777777778 17.109375  0 16.6875  0 16.2  L 0 1.8  C 0 1.3125  0.230902777777778 0.890624999999999  0.692708333333333 0.534375  C 1.15451388888889 0.178124999999998  1.70138888888889 0  2.33333333333333 0  L 11.6666666666667 0  C 12.2986111111111 0  12.8454861111111 0.178124999999998  13.3072916666667 0.534375  Z " fill-rule="nonzero" fill="#999999" stroke="none" transform="matrix(1 0 0 1 27 266 )" />
  </g>
</svg>