<?xml version="1.0" encoding="utf-8"?>
<svg version="1.1" xmlns:xlink="http://www.w3.org/1999/xlink" width="240px" height="32px" viewBox="132 346  240 32" xmlns="http://www.w3.org/2000/svg">
  <path d="M 133 348  A 1 1 0 0 1 134 347 L 370 347  A 1 1 0 0 1 371 348 L 371 376  A 1 1 0 0 1 370 377 L 134 377  A 1 1 0 0 1 133 376 L 133 348  Z " fill-rule="nonzero" fill="#f0f0f0" stroke="none" />
  <path d="M 132.5 348  A 1.5 1.5 0 0 1 134 346.5 L 370 346.5  A 1.5 1.5 0 0 1 371.5 348 L 371.5 376  A 1.5 1.5 0 0 1 370 377.5 L 134 377.5  A 1.5 1.5 0 0 1 132.5 376 L 132.5 348  Z " stroke-width="1" stroke="#000000" fill="none" stroke-opacity="0.0980392156862745" />
</svg>