<?xml version="1.0" encoding="utf-8"?>
<svg version="1.1" xmlns:xlink="http://www.w3.org/1999/xlink" width="25px" height="24px" xmlns="http://www.w3.org/2000/svg">
  <g transform="matrix(1 0 0 1 -6 -8 )">
    <path d="M 10.6901041666667 14.4599659284497  C 11.3411458333333 13.778534923339  11.6666666666667 12.9562748438387  11.6666666666667 11.9931856899489  C 11.6666666666667 11.0300965360591  11.3411458333333 10.2078364565588  10.6901041666667 9.52640545144804  C 10.0390625 8.84497444633731  9.25347222222222 8.50425894378194  8.33333333333333 8.50425894378194  C 7.41319444444444 8.50425894378194  6.62760416666667 8.84497444633731  5.9765625 9.52640545144804  C 5.32552083333333 10.2078364565588  5 11.0300965360591  5 11.9931856899489  C 5 12.9562748438387  5.32552083333333 13.778534923339  5.9765625 14.4599659284497  C 6.62760416666667 15.1413969335605  7.41319444444444 15.4821124361158  8.33333333333333 15.4821124361158  C 9.25347222222222 15.4821124361158  10.0390625 15.1413969335605  10.6901041666667 14.4599659284497  Z M 21.1783854166667 20.2044293015332  C 21.50390625 19.8637137989779  21.6666666666667 19.4525837592277  21.6666666666667 18.9710391822828  C 21.6666666666667 18.4985803520727  21.5017361111111 18.0897217490062  21.171875 17.7444633730835  C 20.8420138888889 17.3992049971607  20.4513888888889 17.2265758091993  20 17.2265758091993  C 19.5486111111111 17.2265758091993  19.1579861111111 17.3992049971607  18.828125 17.7444633730835  C 18.4982638888889 18.0897217490062  18.3333333333333 18.4985803520727  18.3333333333333 18.9710391822828  C 18.3333333333333 19.4525837592277  18.49609375 19.8637137989779  18.8216145833333 20.2044293015332  C 19.1471354166667 20.5451448040886  19.5399305555556 20.7155025553663  20 20.7155025553663  C 20.4600694444444 20.7155025553663  20.8528645833333 20.5451448040886  21.1783854166667 20.2044293015332  Z M 21.1783854166667 6.24872231686542  C 21.50390625 5.90800681431005  21.6666666666667 5.49687677455991  21.6666666666667 5.01533219761499  C 21.6666666666667 4.54287336740488  21.5017361111111 4.13401476433844  21.171875 3.78875638841567  C 20.8420138888889 3.4434980124929  20.4513888888889 3.27086882453152  20 3.27086882453152  C 19.5486111111111 3.27086882453152  19.1579861111111 3.4434980124929  18.828125 3.78875638841567  C 18.4982638888889 4.13401476433844  18.3333333333333 4.54287336740488  18.3333333333333 5.01533219761499  C 18.3333333333333 5.49687677455991  18.49609375 5.90800681431005  18.8216145833333 6.24872231686542  C 19.1471354166667 6.58943781942078  19.5399305555556 6.75979557069847  20 6.75979557069847  C 20.4600694444444 6.75979557069847  20.8528645833333 6.58943781942078  21.1783854166667 6.24872231686542  Z M 16.5755208333333 10.4872231686542  C 16.6362847222222 10.5644520159001  16.6666666666667 10.6530380465645  16.6666666666667 10.7529812606474  L 16.6666666666667 13.2742759795571  C 16.6666666666667 13.3651334469052  16.6362847222222 13.4537194775696  16.5755208333333 13.5400340715503  C 16.5147569444444 13.6263486655309  16.4453125 13.6740488358887  16.3671875 13.6831345826235  L 14.3489583333333 14.0102214650767  C 14.2534722222222 14.328222600795  14.1145833333333 14.6734809767178  13.9322916666667 15.045996592845  C 14.2274305555556 15.4821124361158  14.6180555555556 16.0045428733674  15.1041666666667 16.6132879045997  C 15.1649305555556 16.7132311186826  15.1953125 16.8040885860307  15.1953125 16.885860306644  C 15.1953125 16.9948892674617  15.1649305555556 17.0812038614424  15.1041666666667 17.144804088586  C 14.9045138888889 17.4173764906303  14.5464409722222 17.8239636570131  14.0299479166667 18.3645655877342  C 13.5134548611111 18.9051675184554  13.1727430555556 19.175468483816  13.0078125 19.175468483816  C 12.9123263888889 19.175468483816  12.8211805555556 19.1436683702442  12.734375 19.0800681431005  L 11.2369791666667 17.8534923339012  C 10.9157986111111 18.0261215218626  10.5815972222222 18.1669505962521  10.234375 18.2759795570698  C 10.1388888888889 19.2572402044293  10.0390625 19.9613855763771  9.93489583333333 20.3884156729131  C 9.87413194444444 20.6064735945486  9.74392361111111 20.7155025553663  9.54427083333333 20.7155025553663  L 7.12239583333333 20.7155025553663  C 7.02690972222222 20.7155025553663  6.94010416666667 20.6814310051107  6.86197916666667 20.6132879045997  C 6.78385416666667 20.5451448040886  6.74045138888889 20.465644520159  6.73177083333333 20.3747870528109  L 6.43229166666667 18.2896081771721  C 6.13715277777778 18.198750709824  5.81163194444444 18.0579216354344  5.45572916666667 17.8671209540034  L 3.91927083333333 19.0800681431005  C 3.85850694444444 19.1436683702442  3.77170138888889 19.175468483816  3.65885416666667 19.175468483816  C 3.56336805555556 19.175468483816  3.47222222222222 19.1391254968768  3.38541666666667 19.0664395229983  C 2.13541666666667 17.8580352072686  1.51041666666667 17.1311754684838  1.51041666666667 16.885860306644  C 1.51041666666667 16.8040885860307  1.54079861111111 16.71777399205  1.6015625 16.6269165247019  C 1.68836805555556 16.4997160704145  1.86631944444444 16.2589437819421  2.13541666666667 15.9045996592845  C 2.40451388888889 15.5502555366269  2.60850694444445 15.2731402612152  2.74739583333333 15.0732538330494  C 2.54774305555556 14.6734809767178  2.39583333333333 14.3009653605906  2.29166666666667 13.9557069846678  L 0.3125 13.6286201022147  C 0.225694444444444 13.6195343554798  0.151909722222222 13.5763770584895  0.0911458333333333 13.4991482112436  C 0.0303819444444444 13.4219193639977  0 13.3333333333333  0 13.2333901192504  L 0 10.7120954003407  C 0 10.6212379329926  0.0303819444444444 10.5326519023282  0.0911458333333333 10.4463373083475  C 0.151909722222222 10.3600227143668  0.221354166666667 10.3123225440091  0.299479166666667 10.3032367972743  L 2.31770833333333 9.97614991482113  C 2.41319444444444 9.65814877910278  2.55208333333333 9.31289040318001  2.734375 8.94037478705281  C 2.43923611111111 8.50425894378194  2.04861111111111 7.98182850653038  1.5625 7.37308347529813  C 1.50173611111111 7.27314026121522  1.47135416666667 7.18228279386712  1.47135416666667 7.10051107325383  C 1.47135416666667 6.99148211243612  1.50173611111111 6.90062464508802  1.5625 6.82793867120954  C 1.75347222222222 6.55536626916525  2.109375 6.15105053946621  2.63020833333333 5.61499148211244  C 3.15104166666667 5.07893242475866  3.49392361111111 4.81090289608177  3.65885416666667 4.81090289608177  C 3.75434027777778 4.81090289608177  3.84548611111111 4.84270300965361  3.93229166666667 4.90630323679728  L 5.4296875 6.13287904599659  C 5.72482638888889 5.96933560477002  6.05902777777778 5.82396365701306  6.43229166666667 5.69676320272572  C 6.52777777777778 4.71550255536627  6.62760416666667 4.01590005678591  6.73177083333333 3.59795570698467  C 6.79253472222222 3.37989778534923  6.92274305555556 3.27086882453152  7.12239583333333 3.27086882453152  L 9.54427083333333 3.27086882453152  C 9.63975694444445 3.27086882453152  9.7265625 3.30494037478705  9.8046875 3.37308347529813  C 9.8828125 3.4412265758092  9.92621527777778 3.52072685973878  9.93489583333333 3.61158432708688  L 10.234375 5.69676320272572  C 10.5295138888889 5.78762067007382  10.8550347222222 5.92844974446337  11.2109375 6.11925042589438  L 12.7473958333333 4.90630323679728  C 12.8168402777778 4.84270300965361  12.9036458333333 4.81090289608177  13.0078125 4.81090289608177  C 13.1032986111111 4.81090289608177  13.1944444444444 4.84724588302101  13.28125 4.91993185689949  C 14.53125 6.12833617262919  15.15625 6.85519591141397  15.15625 7.10051107325383  C 15.15625 7.17319704713231  15.1258680555556 7.259511641113  15.0651041666667 7.35945485519591  C 14.9609375 7.50482680295286  14.7786458333333 7.75014196479273  14.5182291666667 8.0954003407155  C 14.2578125 8.44065871663827  14.0625 8.71323111868257  13.9322916666667 8.91311754684838  C 14.1319444444444 9.34923339011925  14.2795138888889 9.72174900624645  14.375 10.03066439523  L 16.3541666666667 10.3441226575809  C 16.4409722222222 10.3622941510505  16.5147569444444 10.4099943214083  16.5755208333333 10.4872231686542  Z M 23.0598958333333 17.5945485519591  C 24.3532986111111 17.7308347529813  25 17.8716638273708  25 18.0170357751278  L 25 19.9250425894378  C 25 20.0704145371948  24.3532986111111 20.2112436115843  23.0598958333333 20.3475298126065  C 22.9557291666667 20.5928449744463  22.8255208333333 20.8290743895514  22.6692708333333 21.0562180579216  C 23.1119791666667 22.0829074389551  23.3333333333333 22.709823963657  23.3333333333333 22.9369676320273  C 23.3333333333333 22.9733106189665  23.3159722222222 23.0051107325383  23.28125 23.0323679727428  C 22.2222222222222 23.6774559909143  21.6840277777778 24  21.6666666666667 24  C 21.5972222222222 24  21.3975694444444 23.786484951732  21.0677083333333 23.3594548551959  C 20.7378472222222 22.9324247586599  20.5121527777778 22.6235093696763  20.390625 22.4327086882453  C 20.2170138888889 22.4508801817149  20.0868055555556 22.4599659284497  20 22.4599659284497  C 19.9131944444444 22.4599659284497  19.7829861111111 22.4508801817149  19.609375 22.4327086882453  C 19.4878472222222 22.6235093696763  19.2621527777778 22.9324247586599  18.9322916666667 23.3594548551959  C 18.6024305555556 23.786484951732  18.4027777777778 24  18.3333333333333 24  C 18.3159722222222 24  17.7777777777778 23.6774559909143  16.71875 23.0323679727428  C 16.6840277777778 23.0051107325383  16.6666666666667 22.9733106189665  16.6666666666667 22.9369676320273  C 16.6666666666667 22.709823963657  16.8880208333333 22.0829074389551  17.3307291666667 21.0562180579216  C 17.1744791666667 20.8290743895514  17.0442708333333 20.5928449744463  16.9401041666667 20.3475298126065  C 15.6467013888889 20.2112436115843  15 20.0704145371948  15 19.9250425894378  L 15 18.0170357751278  C 15 17.8716638273708  15.6467013888889 17.7308347529813  16.9401041666667 17.5945485519591  C 17.0529513888889 17.3310618966496  17.1831597222222 17.0948324815446  17.3307291666667 16.885860306644  C 16.8880208333333 15.8591709256104  16.6666666666667 15.2322544009086  16.6666666666667 15.0051107325383  C 16.6666666666667 14.9687677455991  16.6840277777778 14.9369676320273  16.71875 14.9097103918228  C 16.7534722222222 14.8915388983532  16.9053819444444 14.8006814310051  17.1744791666667 14.6371379897785  C 17.4435763888889 14.473594548552  17.6996527777778 14.3191368540602  17.9427083333333 14.1737649063032  C 18.1857638888889 14.0283929585463  18.3159722222222 13.9557069846678  18.3333333333333 13.9557069846678  C 18.4027777777778 13.9557069846678  18.6024305555556 14.1669505962521  18.9322916666667 14.5894378194208  C 19.2621527777778 15.0119250425894  19.4878472222222 15.3185689948893  19.609375 15.5093696763203  C 19.7829861111111 15.4911981828507  19.9131944444444 15.4821124361158  20 15.4821124361158  C 20.0868055555556 15.4821124361158  20.2170138888889 15.4911981828507  20.390625 15.5093696763203  C 20.8333333333333 14.8642816581488  21.2326388888889 14.3554798409994  21.5885416666667 13.9829642248722  L 21.6666666666667 13.9557069846678  C 21.7013888888889 13.9557069846678  22.2395833333333 14.2737081203861  23.28125 14.9097103918228  C 23.3159722222222 14.9369676320273  23.3333333333333 14.9687677455991  23.3333333333333 15.0051107325383  C 23.3333333333333 15.2322544009086  23.1119791666667 15.8591709256104  22.6692708333333 16.885860306644  C 22.8168402777778 17.0948324815446  22.9470486111111 17.3310618966496  23.0598958333333 17.5945485519591  Z M 23.0598958333333 3.63884156729131  C 24.3532986111111 3.77512776831346  25 3.91595684270301  25 4.06132879045997  L 25 5.96933560477002  C 25 6.11470755252697  24.3532986111111 6.25553662691652  23.0598958333333 6.39182282793867  C 22.9557291666667 6.63713798977853  22.8255208333333 6.87336740488359  22.6692708333333 7.10051107325383  C 23.1119791666667 8.12720045428734  23.3333333333333 8.75411697898921  23.3333333333333 8.98126064735945  C 23.3333333333333 9.01760363429869  23.3159722222222 9.04940374787053  23.28125 9.07666098807496  C 22.2222222222222 9.72174900624645  21.6840277777778 10.0442930153322  21.6666666666667 10.0442930153322  C 21.5972222222222 10.0442930153322  21.3975694444444 9.83077796706417  21.0677083333333 9.40374787052811  C 20.7378472222222 8.97671777399205  20.5121527777778 8.66780238500852  20.390625 8.47700170357751  C 20.2170138888889 8.49517319704713  20.0868055555556 8.50425894378194  20 8.50425894378194  C 19.9131944444444 8.50425894378194  19.7829861111111 8.49517319704713  19.609375 8.47700170357751  C 19.4878472222222 8.66780238500852  19.2621527777778 8.97671777399205  18.9322916666667 9.40374787052811  C 18.6024305555556 9.83077796706417  18.4027777777778 10.0442930153322  18.3333333333333 10.0442930153322  C 18.3159722222222 10.0442930153322  17.7777777777778 9.72174900624645  16.71875 9.07666098807496  C 16.6840277777778 9.04940374787053  16.6666666666667 9.01760363429869  16.6666666666667 8.98126064735945  C 16.6666666666667 8.75411697898921  16.8880208333333 8.12720045428734  17.3307291666667 7.10051107325383  C 17.1744791666667 6.87336740488359  17.0442708333333 6.63713798977853  16.9401041666667 6.39182282793867  C 15.6467013888889 6.25553662691652  15 6.11470755252697  15 5.96933560477002  L 15 4.06132879045997  C 15 3.91595684270301  15.6467013888889 3.77512776831346  16.9401041666667 3.63884156729131  C 17.0529513888889 3.37535491198183  17.1831597222222 3.13912549687677  17.3307291666667 2.93015332197615  C 16.8880208333333 1.90346394094264  16.6666666666667 1.27654741624077  16.6666666666667 1.04940374787053  C 16.6666666666667 1.01306076093129  16.6840277777778 0.981260647359456  16.71875 0.954003407155026  C 16.7534722222222 0.935831913685403  16.9053819444444 0.844974446337309  17.1744791666667 0.681431005110733  C 17.4435763888889 0.517887563884157  17.6996527777778 0.363429869392387  17.9427083333333 0.218057921635435  C 18.1857638888889 0.0726859738784764  18.3159722222222 0  18.3333333333333 0  C 18.4027777777778 0  18.6024305555556 0.211243611584326  18.9322916666667 0.63373083475298  C 19.2621527777778 1.05621805792163  19.4878472222222 1.36286201022147  19.609375 1.55366269165247  C 19.7829861111111 1.53549119818285  19.9131944444444 1.52640545144804  20 1.52640545144804  C 20.0868055555556 1.52640545144804  20.2170138888889 1.53549119818285  20.390625 1.55366269165247  C 20.8333333333333 0.908574673480974  21.2326388888889 0.399772856331628  21.5885416666667 0.0272572402044293  L 21.6666666666667 0  C 21.7013888888889 0  22.2395833333333 0.31800113571834  23.28125 0.954003407155026  C 23.3159722222222 0.981260647359456  23.3333333333333 1.01306076093129  23.3333333333333 1.04940374787053  C 23.3333333333333 1.27654741624077  23.1119791666667 1.90346394094264  22.6692708333333 2.93015332197615  C 22.8168402777778 3.13912549687677  22.9470486111111 3.37535491198183  23.0598958333333 3.63884156729131  Z " fill-rule="nonzero" fill="#333333" stroke="none" transform="matrix(1 0 0 1 6 8 )" />
  </g>
</svg>