<?xml version="1.0" encoding="utf-8"?>
<svg version="1.1" xmlns:xlink="http://www.w3.org/1999/xlink" width="12px" height="12px" viewBox="253 131  12 12" xmlns="http://www.w3.org/2000/svg">
  <path d="M 259 131  C 262.36 131  265 133.64  265 137  C 265 140.36  262.36 143  259 143  C 255.64 143  253 140.36  253 137  C 253 133.64  255.64 131  259 131  Z " fill-rule="nonzero" fill="#f0f0f0" stroke="none" />
  <path d="M 259 131.5  C 262.08 131.5  264.5 133.92  264.5 137  C 264.5 140.08  262.08 142.5  259 142.5  C 255.92 142.5  253.5 140.08  253.5 137  C 253.5 133.92  255.92 131.5  259 131.5  Z " stroke-width="1" stroke="#797979" fill="none" />
  <path d="M 259 140  C 257.32 140  256 138.68  256 137  C 256 135.32  257.32 134  259 134  C 260.68 134  262 135.32  262 137  C 262 138.68  260.68 140  259 140  " fill-rule="nonzero" fill="#797979" stroke="none" />
</svg>