<?xml version="1.0" encoding="utf-8"?>
<svg version="1.1" xmlns:xlink="http://www.w3.org/1999/xlink" width="12px" height="12px" viewBox="361 131  12 12" xmlns="http://www.w3.org/2000/svg">
  <path d="M 367 131  C 370.36 131  373 133.64  373 137  C 373 140.36  370.36 143  367 143  C 363.64 143  361 140.36  361 137  C 361 133.64  363.64 131  367 131  Z " fill-rule="nonzero" fill="#ffffff" stroke="none" />
  <path d="M 367 131.5  C 370.08 131.5  372.5 133.92  372.5 137  C 372.5 140.08  370.08 142.5  367 142.5  C 363.92 142.5  361.5 140.08  361.5 137  C 361.5 133.92  363.92 131.5  367 131.5  Z " stroke-width="1" stroke="#797979" fill="none" />
  <path d="M 367 140  C 365.32 140  364 138.68  364 137  C 364 135.32  365.32 134  367 134  C 368.68 134  370 135.32  370 137  C 370 138.68  368.68 140  367 140  " fill-rule="nonzero" fill="#797979" stroke="none" />
</svg>