<?xml version="1.0" encoding="utf-8"?>
<svg version="1.1" xmlns:xlink="http://www.w3.org/1999/xlink" width="12px" height="12px" viewBox="621 131  12 12" xmlns="http://www.w3.org/2000/svg">
  <path d="M 627 131  C 630.36 131  633 133.64  633 137  C 633 140.36  630.36 143  627 143  C 623.64 143  621 140.36  621 137  C 621 133.64  623.64 131  627 131  Z " fill-rule="nonzero" fill="#f0f0f0" stroke="none" />
  <path d="M 627 131.5  C 630.08 131.5  632.5 133.92  632.5 137  C 632.5 140.08  630.08 142.5  627 142.5  C 623.92 142.5  621.5 140.08  621.5 137  C 621.5 133.92  623.92 131.5  627 131.5  Z " stroke-width="1" stroke="#797979" fill="none" />
  <path d="M 627 140  C 625.32 140  624 138.68  624 137  C 624 135.32  625.32 134  627 134  C 628.68 134  630 135.32  630 137  C 630 138.68  628.68 140  627 140  " fill-rule="nonzero" fill="#797979" stroke="none" />
</svg>