<?xml version="1.0" encoding="utf-8"?>
<svg version="1.1" xmlns:xlink="http://www.w3.org/1999/xlink" width="114px" height="79px" xmlns="http://www.w3.org/2000/svg">
  <defs>
    <filter x="74px" y="0px" width="114px" height="79px" filterUnits="userSpaceOnUse" id="filter9">
      <feOffset dx="0" dy="2" in="SourceAlpha" result="shadowOffsetInner" />
      <feGaussianBlur stdDeviation="1" in="shadowOffsetInner" result="shadowGaussian" />
      <feComposite in2="shadowGaussian" operator="atop" in="SourceAlpha" result="shadowComposite" />
      <feColorMatrix type="matrix" values="0 0 0 0 0.8  0 0 0 0 0.8  0 0 0 0 0.8  0 0 0 1 0  " in="shadowComposite" />
    </filter>
    <g id="widget10">
      <path d="M 76.5 64.1764705882353  C 76.5 64.1764705882353  76.5 2  76.5 2  C 76.5 1.17157287525381  77.1715728752538 0.5  78 0.5  C 78 0.5  184 0.5  184 0.5  C 184.828427124746 0.5  185.5 1.17157287525381  185.5 2  C 185.5 2  185.5 64.1764705882353  185.5 64.1764705882353  C 185.5 65.0048977129815  184.828427124746 65.6764705882353  184 65.6764705882353  C 184 65.6764705882353  125.353369337634 65.6764705882353  125.353369337634 65.6764705882353  C 125.353369337634 65.6764705882353  111.75 74.4059054573051  111.75 74.4059054573051  C 111.75 74.4059054573051  98.1466306623664 65.6764705882353  98.1466306623664 65.6764705882353  C 98.1466306623664 65.6764705882353  78 65.6764705882353  78 65.6764705882353  C 77.1715728752538 65.6764705882353  76.5 65.0048977129815  76.5 64.1764705882353  Z " fill-rule="nonzero" fill="#ffffff" stroke="none" />
      <path d="M 76 64.1764705882353  C 76 64.1764705882353  76 2  76 2  C 76 0.895430500338413  76.8954305003384 0  78 0  C 78 0  184 0  184 0  C 185.104569499662 0  186 0.895430500338413  186 2  C 186 2  186 64.1764705882353  186 64.1764705882353  C 186 65.2810400878969  185.104569499662 66.1764705882353  184 66.1764705882353  C 184 66.1764705882353  125.5 66.1764705882353  125.5 66.1764705882353  C 125.5 66.1764705882353  111.75 75  111.75 75  C 111.75 75  98 66.1764705882353  98 66.1764705882353  C 98 66.1764705882353  78 66.1764705882353  78 66.1764705882353  C 76.8954305003384 66.1764705882353  76 65.2810400878969  76 64.1764705882353  Z M 77 64.1764705882353  C 77 64.7287553380661  77.4477152501692 65.1764705882353  78 65.1764705882353  C 78 65.1764705882353  98.2932613247322 65.1764705882353  98.2932613247322 65.1764705882353  C 98.2932613247322 65.1764705882353  111.75 73.8118109146102  111.75 73.8118109146102  C 111.75 73.8118109146102  125.206738675268 65.1764705882353  125.206738675268 65.1764705882353  C 125.206738675268 65.1764705882353  184 65.1764705882353  184 65.1764705882353  C 184.552284749831 65.1764705882353  185 64.7287553380661  185 64.1764705882353  C 185 64.1764705882353  185 2  185 2  C 185 1.44771525016921  184.552284749831 1  184 1  C 184 1  78 1  78 1  C 77.4477152501692 1  77 1.44771525016921  77 2  C 77 2  77 64.1764705882353  77 64.1764705882353  Z " fill-rule="nonzero" fill="#cccccc" stroke="none" />
    </g>
  </defs>
  <g transform="matrix(1 0 0 1 -74 0 )">
    <use xlink:href="#widget10" filter="url(#filter9)" />
    <use xlink:href="#widget10" />
  </g>
</svg>