<?xml version="1.0" encoding="utf-8"?>
<svg version="1.1" xmlns:xlink="http://www.w3.org/1999/xlink" width="114px" height="109px" xmlns="http://www.w3.org/2000/svg">
  <defs>
    <filter x="33px" y="0px" width="114px" height="109px" filterUnits="userSpaceOnUse" id="filter22">
      <feOffset dx="0" dy="2" in="SourceAlpha" result="shadowOffsetInner" />
      <feGaussianBlur stdDeviation="1" in="shadowOffsetInner" result="shadowGaussian" />
      <feComposite in2="shadowGaussian" operator="atop" in="SourceAlpha" result="shadowComposite" />
      <feColorMatrix type="matrix" values="0 0 0 0 0.8  0 0 0 0 0.8  0 0 0 0 0.8  0 0 0 1 0  " in="shadowComposite" />
    </filter>
    <g id="widget23">
      <path d="M 35.5 90.6470588235294  C 35.5 90.6470588235294  35.5 2  35.5 2  C 35.5 1.17157287525381  36.1715728752538 0.5  37 0.5  C 37 0.5  143 0.5  143 0.5  C 143.828427124746 0.5  144.5 1.17157287525381  144.5 2  C 144.5 2  144.5 90.6470588235294  144.5 90.6470588235294  C 144.5 91.4754859482756  143.828427124746 92.1470588235294  143 92.1470588235294  C 143 92.1470588235294  84.3083863715431 92.1470588235294  84.3083863715431 92.1470588235294  C 84.3083863715431 92.1470588235294  70.75 104.327855135932  70.75 104.327855135932  C 70.75 104.327855135932  57.191613628457 92.1470588235294  57.191613628457 92.1470588235294  C 57.191613628457 92.1470588235294  37 92.1470588235294  37 92.1470588235294  C 36.1715728752538 92.1470588235294  35.5 91.4754859482756  35.5 90.6470588235294  Z " fill-rule="nonzero" fill="#ffffff" stroke="none" />
      <path d="M 35 90.6470588235294  C 35 90.6470588235294  35 2  35 2  C 35 0.895430500338413  35.8954305003384 0  37 0  C 37 0  143 0  143 0  C 144.104569499662 0  145 0.895430500338413  145 2  C 145 2  145 90.6470588235294  145 90.6470588235294  C 145 91.751628323191  144.104569499662 92.6470588235294  143 92.6470588235294  C 143 92.6470588235294  84.5 92.6470588235294  84.5 92.6470588235294  C 84.5 92.6470588235294  70.75 105  70.75 105  C 70.75 105  57 92.6470588235294  57 92.6470588235294  C 57 92.6470588235294  37 92.6470588235294  37 92.6470588235294  C 35.8954305003384 92.6470588235294  35 91.751628323191  35 90.6470588235294  Z M 36 90.6470588235294  C 36 91.1993435733602  36.4477152501692 91.6470588235294  37 91.6470588235294  C 37 91.6470588235294  57.3832272569137 91.6470588235294  57.3832272569137 91.6470588235294  C 57.3832272569137 91.6470588235294  70.75 103.655710271863  70.75 103.655710271863  C 70.75 103.655710271863  84.1167727430861 91.6470588235294  84.1167727430861 91.6470588235294  C 84.1167727430861 91.6470588235294  143 91.6470588235294  143 91.6470588235294  C 143.552284749831 91.6470588235294  144 91.1993435733602  144 90.6470588235294  C 144 90.6470588235294  144 2  144 2  C 144 1.44771525016921  143.552284749831 1  143 1  C 143 1  37 1  37 1  C 36.4477152501692 1  36 1.44771525016921  36 2  C 36 2  36 90.6470588235294  36 90.6470588235294  Z " fill-rule="nonzero" fill="#cccccc" stroke="none" />
    </g>
  </defs>
  <g transform="matrix(1 0 0 1 -33 0 )">
    <use xlink:href="#widget23" filter="url(#filter22)" />
    <use xlink:href="#widget23" />
  </g>
</svg>