<?xml version="1.0" encoding="utf-8"?>
<svg version="1.1" xmlns:xlink="http://www.w3.org/1999/xlink" width="8px" height="12px" xmlns="http://www.w3.org/2000/svg">
  <g transform="matrix(1 0 0 1 -506 -125 )">
    <path d="M 7.8515625 7.25284090909091  C 7.95052083333331 7.36079545454544  8 7.48863636363637  8 7.63636363636365  C 8 7.78409090909093  7.95052083333331 7.91193181818181  7.8515625 8.01988636363635  L 4.3515625 11.8380681818182  C 4.25260416666669 11.9460227272727  4.13541666666669 12  4 12  C 3.86458333333331 12  3.74739583333331 11.9460227272727  3.6484375 11.8380681818182  L 0.1484375 8.01988636363635  C 0.0494791666666856 7.91193181818181  0 7.78409090909093  0 7.63636363636365  C 0 7.48863636363637  0.0494791666666856 7.36079545454544  0.1484375 7.25284090909091  C 0.247395833333314 7.14488636363635  0.364583333333314 7.09090909090909  0.5 7.09090909090909  L 7.5 7.09090909090909  C 7.63541666666669 7.09090909090909  7.75260416666669 7.14488636363635  7.8515625 7.25284090909091  Z M 7.8515625 3.98011363636365  C 7.95052083333331 4.08806818181816  8 4.21590909090907  8 4.36363636363635  C 8 4.51136363636363  7.95052083333331 4.63920454545456  7.8515625 4.74715909090909  C 7.75260416666669 4.85511363636365  7.63541666666669 4.90909090909091  7.5 4.90909090909091  L 0.5 4.90909090909091  C 0.364583333333314 4.90909090909091  0.247395833333314 4.85511363636365  0.1484375 4.74715909090909  C 0.0494791666666856 4.63920454545456  0 4.51136363636363  0 4.36363636363635  C 0 4.21590909090907  0.0494791666666856 4.08806818181816  0.1484375 3.98011363636365  L 3.6484375 0.161931818181813  C 3.74739583333331 0.0539772727272805  3.86458333333331 0  4 0  C 4.13541666666669 0  4.25260416666669 0.0539772727272805  4.3515625 0.161931818181813  L 7.8515625 3.98011363636365  Z " fill-rule="nonzero" fill="#cccccc" stroke="none" transform="matrix(1 0 0 1 506 125 )" />
  </g>
</svg>