<?xml version="1.0" encoding="utf-8"?>
<svg version="1.1" xmlns:xlink="http://www.w3.org/1999/xlink" width="12px" height="12px" viewBox="267 295  12 12" xmlns="http://www.w3.org/2000/svg">
  <path d="M 273 295  C 276.36 295  279 297.64  279 301  C 279 304.36  276.36 307  273 307  C 269.64 307  267 304.36  267 301  C 267 297.64  269.64 295  273 295  Z " fill-rule="nonzero" fill="#f0f0f0" stroke="none" />
  <path d="M 273 295.5  C 276.08 295.5  278.5 297.92  278.5 301  C 278.5 304.08  276.08 306.5  273 306.5  C 269.92 306.5  267.5 304.08  267.5 301  C 267.5 297.92  269.92 295.5  273 295.5  Z " stroke-width="1" stroke="#797979" fill="none" />
  <path d="M 273 304  C 271.32 304  270 302.68  270 301  C 270 299.32  271.32 298  273 298  C 274.68 298  276 299.32  276 301  C 276 302.68  274.68 304  273 304  " fill-rule="nonzero" fill="#797979" stroke="none" />
</svg>