<?xml version="1.0" encoding="utf-8"?>
<svg version="1.1" xmlns:xlink="http://www.w3.org/1999/xlink" width="12px" height="12px" viewBox="141 295  12 12" xmlns="http://www.w3.org/2000/svg">
  <path d="M 147 295  C 150.36 295  153 297.64  153 301  C 153 304.36  150.36 307  147 307  C 143.64 307  141 304.36  141 301  C 141 297.64  143.64 295  147 295  Z " fill-rule="nonzero" fill="#f0f0f0" stroke="none" />
  <path d="M 147 295.5  C 150.08 295.5  152.5 297.92  152.5 301  C 152.5 304.08  150.08 306.5  147 306.5  C 143.92 306.5  141.5 304.08  141.5 301  C 141.5 297.92  143.92 295.5  147 295.5  Z " stroke-width="1" stroke="#797979" fill="none" />
  <path d="M 147 304  C 145.32 304  144 302.68  144 301  C 144 299.32  145.32 298  147 298  C 148.68 298  150 299.32  150 301  C 150 302.68  148.68 304  147 304  " fill-rule="nonzero" fill="#797979" stroke="none" />
</svg>