<?xml version="1.0" encoding="utf-8"?>
<svg version="1.1" xmlns:xlink="http://www.w3.org/1999/xlink" width="12px" height="12px" viewBox="108 228  12 12" xmlns="http://www.w3.org/2000/svg">
  <path d="M 114 228  C 117.36 228  120 230.64  120 234  C 120 237.36  117.36 240  114 240  C 110.64 240  108 237.36  108 234  C 108 230.64  110.64 228  114 228  Z " fill-rule="nonzero" fill="#ffffff" stroke="none" />
  <path d="M 114 228.5  C 117.08 228.5  119.5 230.92  119.5 234  C 119.5 237.08  117.08 239.5  114 239.5  C 110.92 239.5  108.5 237.08  108.5 234  C 108.5 230.92  110.92 228.5  114 228.5  Z " stroke-width="1" stroke="#797979" fill="none" />
  <path d="M 114 237  C 112.32 237  111 235.68  111 234  C 111 232.32  112.32 231  114 231  C 115.68 231  117 232.32  117 234  C 117 235.68  115.68 237  114 237  " fill-rule="nonzero" fill="#797979" stroke="none" />
</svg>