<?xml version="1.0" encoding="utf-8"?>
<svg version="1.1" xmlns:xlink="http://www.w3.org/1999/xlink" width="212px" height="36px" xmlns="http://www.w3.org/2000/svg">
  <defs>
    <mask fill="white" id="clip26">
      <path d="M 0 33  L 0 3  C 0 1.31999999999999  1.45750000000006 0  3.3125 0  L 171.125385802468 0  L 192.595293209876 0  L 208.6875 0  C 210.5425 0  212 1.31999999999999  212 3  L 212 33  C 212 34.68  210.5425 36  208.6875 36  L 3.3125 36  C 1.45750000000006 36  0 34.68  0 33  Z " fill-rule="evenodd" />
    </mask>
  </defs>
  <g transform="matrix(1 0 0 1 -141 -340 )">
    <path d="M 0 33  L 0 3  C 0 1.31999999999999  1.45750000000006 0  3.3125 0  L 171.125385802468 0  L 192.595293209876 0  L 208.6875 0  C 210.5425 0  212 1.31999999999999  212 3  L 212 33  C 212 34.68  210.5425 36  208.6875 36  L 3.3125 36  C 1.45750000000006 36  0 34.68  0 33  Z " fill-rule="nonzero" fill="#ffffff" stroke="none" transform="matrix(1 0 0 1 141 340 )" />
    <path d="M 0 33  L 0 3  C 0 1.31999999999999  1.45750000000006 0  3.3125 0  L 171.125385802468 0  L 192.595293209876 0  L 208.6875 0  C 210.5425 0  212 1.31999999999999  212 3  L 212 33  C 212 34.68  210.5425 36  208.6875 36  L 3.3125 36  C 1.45750000000006 36  0 34.68  0 33  Z " stroke-width="2" stroke="#cccccc" fill="none" transform="matrix(1 0 0 1 141 340 )" mask="url(#clip26)" />
  </g>
</svg>