<?xml version="1.0" encoding="utf-8"?>
<svg version="1.1" xmlns:xlink="http://www.w3.org/1999/xlink" width="38px" height="16px" xmlns="http://www.w3.org/2000/svg">
  <g transform="matrix(1 0 0 1 -1026 -160 )">
    <path d="M 0 12  L 0 4  C 0 1.75999999999999  1.74166666666666 0  3.95833333333329 0  L 14.0837138508365 0  L 15.8029642545771 0  L 20.220284800929 0  L 22.0365296803652 0  L 34.0416666666667 0  C 36.2583333333333 0  38 1.75999999999999  38 4  L 38 12  C 38 14.24  36.2583333333333 16  34.0416666666667 16  L 22.0365296803652 16  L 18.4216133942154 16  L 17.6986301369863 16  L 3.95833333333329 16  C 1.74166666666666 16  0 14.24  0 12  Z " fill-rule="nonzero" fill="#ec808d" stroke="none" transform="matrix(1 0 0 1 1026 160 )" />
  </g>
</svg>