<?xml version="1.0" encoding="utf-8"?>
<svg version="1.1" xmlns:xlink="http://www.w3.org/1999/xlink" width="55px" height="16px" xmlns="http://www.w3.org/2000/svg">
  <g transform="matrix(1 0 0 1 -904 -160 )">
    <path d="M 0 12  L 0 4  C 0 1.75999999999999  2.52083333333332 0  5.72916666666661 0  L 20.3843226788423 0  L 22.8727114210985 0  L 29.2662016855551 0  L 31.8949771689497 0  L 49.2708333333334 0  C 52.4791666666667 0  55 1.75999999999999  55 4  L 55 12  C 55 14.24  52.4791666666667 16  49.2708333333334 16  L 31.8949771689497 16  L 26.6628614916276 16  L 25.6164383561644 16  L 5.72916666666661 16  C 2.52083333333332 16  0 14.24  0 12  Z " fill-rule="nonzero" fill="#17c5ac" stroke="none" transform="matrix(1 0 0 1 904 160 )" />
  </g>
</svg>